<mxfile host="Electron" agent="Mozilla/5.0 (Macintosh; Intel Mac OS X 10_15_7) AppleWebKit/537.36 (KHTML, like Gecko) draw.io/26.1.1 Chrome/132.0.6834.210 Electron/34.3.3 Safari/537.36" version="26.1.1">
  <diagram name="StrÃ¡nka-1" id="KgnDwyzxN_RTt5ZA6u8w">
    <mxGraphModel dx="2074" dy="1214" grid="1" gridSize="10" guides="1" tooltips="1" connect="1" arrows="1" fold="1" page="1" pageScale="1" pageWidth="1654" pageHeight="1169" math="0" shadow="0">
      <root>
        <mxCell id="0" />
        <mxCell id="1" parent="0" />
        <mxCell id="ejgMcL6vFzZr32kdlm8D-9" value="" style="group" vertex="1" connectable="0" parent="1">
          <mxGeometry x="24" y="40" width="1606.26" height="560" as="geometry" />
        </mxCell>
        <mxCell id="nbdM6_VTKNTRga-LtgbC-8" value="" style="rounded=0;whiteSpace=wrap;html=1;fillColor=#dae8fc;strokeColor=none;" parent="ejgMcL6vFzZr32kdlm8D-9" vertex="1">
          <mxGeometry y="30.07982144607564" width="849.8602767024885" height="529.9201785539243" as="geometry" />
        </mxCell>
        <mxCell id="ejgMcL6vFzZr32kdlm8D-2" style="edgeStyle=orthogonalEdgeStyle;rounded=0;orthogonalLoop=1;jettySize=auto;html=1;exitX=0.995;exitY=0.63;exitDx=0;exitDy=0;exitPerimeter=0;entryX=0.005;entryY=0.63;entryDx=0;entryDy=0;entryPerimeter=0;dashed=1;fillColor=#f5f5f5;strokeColor=#666666;startArrow=classic;startFill=1;endArrow=none;" edge="1" parent="ejgMcL6vFzZr32kdlm8D-9" source="dVmr7rk7CjMn16wcttis-1" target="nbdM6_VTKNTRga-LtgbC-4">
          <mxGeometry relative="1" as="geometry" />
        </mxCell>
        <mxCell id="dVmr7rk7CjMn16wcttis-8" style="edgeStyle=orthogonalEdgeStyle;rounded=0;orthogonalLoop=1;jettySize=auto;html=1;exitX=0.005;exitY=0.63;exitDx=0;exitDy=0;exitPerimeter=0;entryX=0.995;entryY=0.63;entryDx=0;entryDy=0;entryPerimeter=0;fillColor=#f5f5f5;strokeColor=#666666;dashed=1;" parent="ejgMcL6vFzZr32kdlm8D-9" source="nbdM6_VTKNTRga-LtgbC-4" target="dVmr7rk7CjMn16wcttis-7" edge="1">
          <mxGeometry relative="1" as="geometry" />
        </mxCell>
        <mxCell id="nbdM6_VTKNTRga-LtgbC-25" value="" style="rounded=0;whiteSpace=wrap;html=1;fillColor=#dae8fc;strokeColor=none;" parent="ejgMcL6vFzZr32kdlm8D-9" vertex="1">
          <mxGeometry x="1234.675488315715" y="191.1763597017064" width="371.58451168428496" height="185.79259694920108" as="geometry" />
        </mxCell>
        <mxCell id="nbdM6_VTKNTRga-LtgbC-24" value="" style="rounded=0;whiteSpace=wrap;html=1;fillColor=#dae8fc;strokeColor=none;" parent="ejgMcL6vFzZr32kdlm8D-9" vertex="1">
          <mxGeometry x="933.1866677758928" y="214.73373497912604" width="171.8578366539818" height="130.0857832972656" as="geometry" />
        </mxCell>
        <mxCell id="nbdM6_VTKNTRga-LtgbC-1" value="" style="image;sketch=0;aspect=fixed;html=1;points=[];align=center;fontSize=12;image=img/lib/mscae/Certificate.svg;" parent="ejgMcL6vFzZr32kdlm8D-9" vertex="1">
          <mxGeometry x="1466.915808118393" y="237.0530559514204" width="77.4133466909842" height="65.02721122042672" as="geometry" />
        </mxCell>
        <mxCell id="nbdM6_VTKNTRga-LtgbC-18" value="" style="edgeStyle=orthogonalEdgeStyle;rounded=0;orthogonalLoop=1;jettySize=auto;html=1;entryX=0.02;entryY=0.667;entryDx=0;entryDy=0;entryPerimeter=0;fillColor=#f5f5f5;strokeColor=#000000;" parent="ejgMcL6vFzZr32kdlm8D-9" source="nbdM6_VTKNTRga-LtgbC-2" target="nbdM6_VTKNTRga-LtgbC-1" edge="1">
          <mxGeometry relative="1" as="geometry" />
        </mxCell>
        <mxCell id="nbdM6_VTKNTRga-LtgbC-2" value="" style="image;aspect=fixed;html=1;points=[];align=center;fontSize=12;image=img/lib/azure2/security/Key_Vaults.svg;" parent="ejgMcL6vFzZr32kdlm8D-9" vertex="1">
          <mxGeometry x="1267.1891330880899" y="227.76342610396046" width="105.28215149973852" height="105.28215149973852" as="geometry" />
        </mxCell>
        <mxCell id="nbdM6_VTKNTRga-LtgbC-17" value="" style="edgeStyle=orthogonalEdgeStyle;rounded=0;orthogonalLoop=1;jettySize=auto;html=1;endArrow=none;startFill=0;dashed=1;strokeColor=#666666;exitX=1;exitY=0.5;exitDx=0;exitDy=0;fillColor=#f5f5f5;" parent="ejgMcL6vFzZr32kdlm8D-9" source="nbdM6_VTKNTRga-LtgbC-24" target="nbdM6_VTKNTRga-LtgbC-2" edge="1">
          <mxGeometry relative="1" as="geometry" />
        </mxCell>
        <mxCell id="nbdM6_VTKNTRga-LtgbC-5" value="" style="image;aspect=fixed;html=1;points=[];align=center;fontSize=12;image=img/lib/azure2/identity/Managed_Identities.svg;" parent="ejgMcL6vFzZr32kdlm8D-9" vertex="1">
          <mxGeometry x="967.2485813469523" y="232.27565267441298" width="105.28215149973852" height="102.18561763209914" as="geometry" />
        </mxCell>
        <mxCell id="nbdM6_VTKNTRga-LtgbC-6" value="" style="image;sketch=0;aspect=fixed;html=1;points=[];align=center;fontSize=12;image=img/lib/mscae/Certificate.svg;" parent="ejgMcL6vFzZr32kdlm8D-9" vertex="1">
          <mxGeometry x="1482.3984961052383" y="252.53577236385394" width="77.4133466909842" height="65.02721122042672" as="geometry" />
        </mxCell>
        <mxCell id="nbdM6_VTKNTRga-LtgbC-7" value="" style="image;sketch=0;aspect=fixed;html=1;points=[];align=center;fontSize=12;image=img/lib/mscae/Certificate.svg;" parent="ejgMcL6vFzZr32kdlm8D-9" vertex="1">
          <mxGeometry x="1497.8811840920835" y="268.0184887762873" width="77.4133466909842" height="65.02721122042672" as="geometry" />
        </mxCell>
        <mxCell id="nbdM6_VTKNTRga-LtgbC-20" value="&lt;font style=&quot;font-size: 10px;&quot;&gt;4&lt;/font&gt;" style="ellipse;whiteSpace=wrap;html=1;fillColor=#f5f5f5;fontColor=#333333;strokeColor=#666666;" parent="ejgMcL6vFzZr32kdlm8D-9" vertex="1">
          <mxGeometry x="1003.6347947393149" y="171.38269203218192" width="30.965375973690414" height="28.90623154201321" as="geometry" />
        </mxCell>
        <mxCell id="nbdM6_VTKNTRga-LtgbC-22" value="&lt;font style=&quot;font-size: 10px;&quot;&gt;5&lt;/font&gt;" style="ellipse;whiteSpace=wrap;html=1;fillColor=#f5f5f5;fontColor=#333333;strokeColor=#666666;" parent="ejgMcL6vFzZr32kdlm8D-9" vertex="1">
          <mxGeometry x="1404.985056171012" y="239.11225723427413" width="30.965375973690414" height="28.90623154201321" as="geometry" />
        </mxCell>
        <mxCell id="nbdM6_VTKNTRga-LtgbC-4" value="" style="aspect=fixed;sketch=0;html=1;dashed=0;whitespace=wrap;verticalLabelPosition=bottom;verticalAlign=top;fillColor=#2875E2;strokeColor=#ffffff;points=[[0.005,0.63,0],[0.1,0.2,0],[0.9,0.2,0],[0.5,0,0],[0.995,0.63,0],[0.72,0.99,0],[0.5,1,0],[0.28,0.99,0]];shape=mxgraph.kubernetes.icon2;kubernetesLabel=1;prIcon=pod" parent="ejgMcL6vFzZr32kdlm8D-9" vertex="1">
          <mxGeometry x="531.1921306195637" y="231.66704116743705" width="77.4133466909842" height="74.31681282334483" as="geometry" />
        </mxCell>
        <mxCell id="nbdM6_VTKNTRga-LtgbC-11" value="" style="aspect=fixed;sketch=0;html=1;dashed=0;whitespace=wrap;verticalLabelPosition=bottom;verticalAlign=top;fillColor=#2875E2;strokeColor=#ffffff;points=[[0.005,0.63,0],[0.1,0.2,0],[0.9,0.2,0],[0.5,0,0],[0.995,0.63,0],[0.72,0.99,0],[0.5,1,0],[0.28,0.99,0]];shape=mxgraph.kubernetes.icon2;kubernetesLabel=1;prIcon=cm" parent="ejgMcL6vFzZr32kdlm8D-9" vertex="1">
          <mxGeometry x="531.1982286235158" y="349.7221908043723" width="77.4133466909842" height="74.31681282334483" as="geometry" />
        </mxCell>
        <mxCell id="nbdM6_VTKNTRga-LtgbC-12" value="" style="aspect=fixed;sketch=0;html=1;dashed=0;whitespace=wrap;verticalLabelPosition=bottom;verticalAlign=top;fillColor=#2875E2;strokeColor=#ffffff;points=[[0.005,0.63,0],[0.1,0.2,0],[0.9,0.2,0],[0.5,0,0],[0.995,0.63,0],[0.72,0.99,0],[0.5,1,0],[0.28,0.99,0]];shape=mxgraph.kubernetes.icon2;prIcon=sa" parent="ejgMcL6vFzZr32kdlm8D-9" vertex="1">
          <mxGeometry x="689.1242869571902" y="231.66704116743705" width="77.4133466909842" height="74.31681282334483" as="geometry" />
        </mxCell>
        <mxCell id="nbdM6_VTKNTRga-LtgbC-15" style="edgeStyle=orthogonalEdgeStyle;rounded=0;orthogonalLoop=1;jettySize=auto;html=1;exitX=0.5;exitY=1;exitDx=0;exitDy=0;exitPerimeter=0;entryX=0.5;entryY=0;entryDx=0;entryDy=0;entryPerimeter=0;fillColor=#f5f5f5;strokeColor=#666666;dashed=1;" parent="ejgMcL6vFzZr32kdlm8D-9" source="nbdM6_VTKNTRga-LtgbC-4" target="nbdM6_VTKNTRga-LtgbC-11" edge="1">
          <mxGeometry relative="1" as="geometry" />
        </mxCell>
        <mxCell id="nbdM6_VTKNTRga-LtgbC-19" value="&lt;font style=&quot;font-size: 10px;&quot;&gt;1&lt;/font&gt;" style="ellipse;whiteSpace=wrap;html=1;fillColor=#f5f5f5;fontColor=#333333;strokeColor=#666666;" parent="ejgMcL6vFzZr32kdlm8D-9" vertex="1">
          <mxGeometry x="516.8405023263705" y="309.33707331418094" width="30.965375973690414" height="28.90623154201321" as="geometry" />
        </mxCell>
        <mxCell id="nbdM6_VTKNTRga-LtgbC-26" value="" style="image;aspect=fixed;html=1;points=[];align=center;fontSize=12;image=img/lib/azure2/compute/Kubernetes_Services.svg;" parent="ejgMcL6vFzZr32kdlm8D-9" vertex="1">
          <mxGeometry x="787.927075950371" width="89.79948216154168" height="79.24030167289142" as="geometry" />
        </mxCell>
        <mxCell id="dVmr7rk7CjMn16wcttis-1" value="" style="aspect=fixed;sketch=0;html=1;dashed=0;whitespace=wrap;verticalLabelPosition=bottom;verticalAlign=top;fillColor=#2875E2;strokeColor=#ffffff;points=[[0.005,0.63,0],[0.1,0.2,0],[0.9,0.2,0],[0.5,0,0],[0.995,0.63,0],[0.72,0.99,0],[0.5,1,0],[0.28,0.99,0]];shape=mxgraph.kubernetes.icon2;prIcon=secret;opacity=60;" parent="ejgMcL6vFzZr32kdlm8D-9" vertex="1">
          <mxGeometry x="315.8413611328192" y="131.18758969796136" width="77.4133466909842" height="74.31681282334483" as="geometry" />
        </mxCell>
        <mxCell id="dVmr7rk7CjMn16wcttis-3" value="&lt;font style=&quot;font-size: 10px;&quot;&gt;2&lt;/font&gt;" style="ellipse;whiteSpace=wrap;html=1;fillColor=#f5f5f5;strokeColor=#666666;fontColor=#333333;" parent="ejgMcL6vFzZr32kdlm8D-9" vertex="1">
          <mxGeometry x="446.4956573038997" y="319.68938051540357" width="30.965375973690414" height="28.90623154201321" as="geometry" />
        </mxCell>
        <mxCell id="dVmr7rk7CjMn16wcttis-5" style="edgeStyle=orthogonalEdgeStyle;rounded=0;orthogonalLoop=1;jettySize=auto;html=1;exitX=0.005;exitY=0.63;exitDx=0;exitDy=0;exitPerimeter=0;entryX=0.995;entryY=0.63;entryDx=0;entryDy=0;entryPerimeter=0;fillColor=#f5f5f5;strokeColor=none;" parent="ejgMcL6vFzZr32kdlm8D-9" source="nbdM6_VTKNTRga-LtgbC-4" target="nbdM6_VTKNTRga-LtgbC-12" edge="1">
          <mxGeometry relative="1" as="geometry" />
        </mxCell>
        <mxCell id="dVmr7rk7CjMn16wcttis-6" style="edgeStyle=none;rounded=0;orthogonalLoop=1;jettySize=auto;html=1;exitX=0.005;exitY=0.63;exitDx=0;exitDy=0;exitPerimeter=0;entryX=0.995;entryY=0.63;entryDx=0;entryDy=0;entryPerimeter=0;endArrow=none;startFill=0;strokeColor=#666666;fillColor=#f5f5f5;dashed=1;gradientColor=#b3b3b3;" parent="ejgMcL6vFzZr32kdlm8D-9" source="nbdM6_VTKNTRga-LtgbC-12" target="nbdM6_VTKNTRga-LtgbC-4" edge="1">
          <mxGeometry relative="1" as="geometry" />
        </mxCell>
        <mxCell id="dVmr7rk7CjMn16wcttis-7" value="" style="aspect=fixed;sketch=0;html=1;dashed=0;whitespace=wrap;verticalLabelPosition=bottom;verticalAlign=top;fillColor=#2875E2;strokeColor=#ffffff;points=[[0.005,0.63,0],[0.1,0.2,0],[0.9,0.2,0],[0.5,0,0],[0.995,0.63,0],[0.72,0.99,0],[0.5,1,0],[0.28,0.99,0]];shape=mxgraph.kubernetes.icon2;kubernetesLabel=1;prIcon=crd;opacity=60;" parent="ejgMcL6vFzZr32kdlm8D-9" vertex="1">
          <mxGeometry x="315.8474591367713" y="349.7252873476548" width="77.4133466909842" height="74.31681282334483" as="geometry" />
        </mxCell>
        <mxCell id="Fh-Z3yIdIVOxWTqGEip0-2" value="" style="shape=image;aspect=fixed;image=data:image/svg+xml,PD94bWwgdmVyc2lvbj0iMS4wIiBlbmNvZGluZz0iVVRGLTgiIHN0YW5kYWxvbmU9Im5vIj8+CjxzdmcKICAgeG1sbnM6ZGM9Imh0dHA6Ly9wdXJsLm9yZy9kYy9lbGVtZW50cy8xLjEvIgogICB4bWxuczpjYz0iaHR0cDovL2NyZWF0aXZlY29tbW9ucy5vcmcvbnMjIgogICB4bWxuczpyZGY9Imh0dHA6Ly93d3cudzMub3JnLzE5OTkvMDIvMjItcmRmLXN5bnRheC1ucyMiCiAgIHhtbG5zOnN2Zz0iaHR0cDovL3d3dy53My5vcmcvMjAwMC9zdmciCiAgIHhtbG5zPSJodHRwOi8vd3d3LnczLm9yZy8yMDAwL3N2ZyIKICAgeG1sbnM6c29kaXBvZGk9Imh0dHA6Ly9zb2RpcG9kaS5zb3VyY2Vmb3JnZS5uZXQvRFREL3NvZGlwb2RpLTAuZHRkIgogICB4bWxuczppbmtzY2FwZT0iaHR0cDovL3d3dy5pbmtzY2FwZS5vcmcvbmFtZXNwYWNlcy9pbmtzY2FwZSIKICAgd2lkdGg9IjE0MiIKICAgaGVpZ2h0PSIxNDIiCiAgIHZpZXdCb3g9IjAgMCAxNDIgMTQyIgogICBmaWxsPSJub25lIgogICB2ZXJzaW9uPSIxLjEiCiAgIGlkPSJzdmc4MjMiCiAgIHNvZGlwb2RpOmRvY25hbWU9ImNlcnQtbWFuYWdlci1sb2dvLWljb24uc3ZnIgogICBpbmtzY2FwZTpleHBvcnQtZmlsZW5hbWU9Ii90bXAvdHN0LnBuZyIKICAgaW5rc2NhcGU6ZXhwb3J0LXhkcGk9Ijk2IgogICBpbmtzY2FwZTpleHBvcnQteWRwaT0iOTYiCiAgIGlua3NjYXBlOnZlcnNpb249IjEuMC4yIChlODZjODcwODc5LCAyMDIxLTAxLTE1KSI+CiAgPG1ldGFkYXRhCiAgICAgaWQ9Im1ldGFkYXRhODI3Ij4KICAgIDxyZGY6UkRGPgogICAgICA8Y2M6V29yawogICAgICAgICByZGY6YWJvdXQ9IiI+CiAgICAgICAgPGRjOmZvcm1hdD5pbWFnZS9zdmcreG1sPC9kYzpmb3JtYXQ+CiAgICAgICAgPGRjOnR5cGUKICAgICAgICAgICByZGY6cmVzb3VyY2U9Imh0dHA6Ly9wdXJsLm9yZy9kYy9kY21pdHlwZS9TdGlsbEltYWdlIiAvPgogICAgICAgIDxkYzp0aXRsZT48L2RjOnRpdGxlPgogICAgICA8L2NjOldvcms+CiAgICA8L3JkZjpSREY+CiAgPC9tZXRhZGF0YT4KICA8c29kaXBvZGk6bmFtZWR2aWV3CiAgICAgcGFnZWNvbG9yPSIjZmZmZmZmIgogICAgIGJvcmRlcmNvbG9yPSIjNjY2NjY2IgogICAgIGJvcmRlcm9wYWNpdHk9IjEiCiAgICAgb2JqZWN0dG9sZXJhbmNlPSIxMCIKICAgICBncmlkdG9sZXJhbmNlPSIxMCIKICAgICBndWlkZXRvbGVyYW5jZT0iMTAiCiAgICAgaW5rc2NhcGU6cGFnZW9wYWNpdHk9IjAiCiAgICAgaW5rc2NhcGU6cGFnZXNoYWRvdz0iMiIKICAgICBpbmtzY2FwZTp3aW5kb3ctd2lkdGg9IjI1NjAiCiAgICAgaW5rc2NhcGU6d2luZG93LWhlaWdodD0iMTQxNSIKICAgICBpZD0ibmFtZWR2aWV3ODI1IgogICAgIHNob3dncmlkPSJmYWxzZSIKICAgICBzaG93Z3VpZGVzPSJmYWxzZSIKICAgICBpbmtzY2FwZTp6b29tPSIzLjAzNDg4MTciCiAgICAgaW5rc2NhcGU6Y3g9IjI0Ni40NjE3MiIKICAgICBpbmtzY2FwZTpjeT0iMTA3Ljg2ODQ0IgogICAgIGlua3NjYXBlOndpbmRvdy14PSIwIgogICAgIGlua3NjYXBlOndpbmRvdy15PSIwIgogICAgIGlua3NjYXBlOndpbmRvdy1tYXhpbWl6ZWQ9IjEiCiAgICAgaW5rc2NhcGU6Y3VycmVudC1sYXllcj0ic3ZnODIzIiAvPgogIDxnCiAgICAgY2xpcFBhdGg9InVybCgjY2xpcDBfMF84MTIpIgogICAgIGlkPSJnODE2IgogICAgIHRyYW5zZm9ybT0ibWF0cml4KDEuMDAyMTAzLDAsMCwxLjAzNzczMTgsNi45Mzk5OTk5ZS03LC0yLjUzMTcyNzZlLTQpIj4KICAgIDxwYXRoCiAgICAgICBkPSJtIDE0MS43MDIsNjguNDE4IGMgMCw3LjQ2MzIgLTQuNTY3LDE0LjExMjMgLTYuNzQ4LDIwLjgzODUgLTIuMjYzLDYuOTc4OSAtMi41NTIsMTUuMDI4NSAtNi43NzYsMjAuODM4NSAtNC4yNjcsNS44NjggLTExLjg1Niw4LjYxMSAtMTcuNzE5LDEyLjg4MSAtNS44MDUsNC4yMjggLTEwLjczNDUsMTAuNjI4IC0xNy43MDYxLDEyLjg5NSAtNi43Mjg2LDIuMTg2IC0xNC40NDYzLC0wLjAyMSAtMjEuOTAxOCwtMC4wMjEgLTcuNDU1NSwwIC0xNS4xNzMxLDIuMjA3IC0yMS44OTk4LDAuMDIxIEMgNDEuOTc3OCwxMzMuNjA0IDM3LjA0OCwxMjcuMjA0IDMxLjI0MjgsMTIyLjk3NiAyNS4zNzk5LDExOC43MDYgMTcuNzkxMywxMTUuOTYzIDEzLjUyNDcsMTEwLjA5NSA5LjMwMDU1LDEwNC4yODcgOS4wMTEzNSw5Ni4yMzc0IDYuNzQ3OTEsODkuMjU2NSA0LjU2MzUxLDgyLjUyMjUgMCw3NS44NzM1IDAsNjguNDE4IDAsNjAuOTYyNCA0LjU2NzM3LDU0LjMwNTcgNi43NDc5MSw0Ny41Nzk1IDkuMDExMzUsNDAuNjAwNSA5LjMwMDU1LDMyLjU1MDcgMTMuNTI0NywyNi43NDEgMTcuNzkxMywyMC44NzUzIDI1LjM3OTksMTguMTI5NyAzMS4yNDI4LDEzLjg2MTcgMzcuMDQ4LDkuNjM0MTQgNDEuOTc3OCwzLjIzMjA5IDQ4Ljk1MTMsMC45NjY4NzIgNTUuNjc4LC0xLjIxOTI0IDYzLjM5NTYsMC45ODYxNjcgNzAuODUxMSwwLjk4NjE2NyBjIDcuNDU1NSwwIDE1LjE3MzIsLTIuMjA1NDA3IDIxLjg5OTksLTAuMDE5Mjk1IDYuOTczNSwyLjI2NTIxOCAxMS45MDMsOC42NjcyNjggMTcuNzA4LDEyLjg5NDgyOCA1Ljg2Myw0LjI2OCAxMy40NTIsNy4wMTM2IDE3LjcxOSwxMi44NzkzIDQuMjI0LDUuODA5NyA0LjUxMywxMy44NTk1IDYuNzc2LDIwLjgzODUgMi4xODEsNi43MjYyIDYuNzQ4LDEzLjM3NzEgNi43NDgsMjAuODM4NSB6IgogICAgICAgZmlsbD0iIzMyNmNlNSIKICAgICAgIGlkPSJwYXRoNzgyIiAvPgogICAgPHBhdGgKICAgICAgIGQ9Im0gMTMuNTg4Myw2MC41MyBjIDguMTgwNCwwIDguMTgwNCwzLjg1OSAxNi4zNTg5LDMuODU5IDguMTc4NCwwIDguMTgwNCwtMy44NTkgMTYuMzYwNywtMy44NTkgOC4xODA0LDAgOC4xNzg1LDMuODU5IDE2LjM1ODksMy44NTkgOC4xODA0LDAgOC4xNzg1LC0zLjg1OSAxNi4zNTg5LC0zLjg1OSA4LjE4MDQsMCA4LjE4MDMsMy44NTkgMTYuMzU4OCwzLjg1OSA4LjE3ODUsMCA4LjE4MDUsLTMuODU5IDE2LjM2MDUsLTMuODU5IDguMTgxLDAgOC4xODEsMy44NTkgMTYuMzYxLDMuODU5IgogICAgICAgc3Ryb2tlPSIjZmZmZmZmIgogICAgICAgc3Ryb2tlTWl0ZXJsaW1pdD0iMTAiCiAgICAgICBpZD0icGF0aDc4NCIgLz4KICAgIDxwYXRoCiAgICAgICBkPSJtIDEzLjU4ODMsNjguMjQ4IGMgOC4xODA0LDAgOC4xODA0LDMuODU5IDE2LjM1ODksMy44NTkgOC4xNzg0LDAgOC4xODA0LC0zLjg1OSAxNi4zNjA3LC0zLjg1OSA4LjE4MDQsMCA4LjE3ODUsMy44NTkgMTYuMzU4OSwzLjg1OSA4LjE4MDQsMCA4LjE3ODUsLTMuODU5IDE2LjM1ODksLTMuODU5IDguMTgwNCwwIDguMTgwMywzLjg1OSAxNi4zNTg4LDMuODU5IDguMTc4NSwwIDguMTgwNSwtMy44NTkgMTYuMzYwNSwtMy44NTkgOC4xODEsMCA4LjE4MSwzLjg1OSAxNi4zNjEsMy44NTkiCiAgICAgICBzdHJva2U9IiNmZmZmZmYiCiAgICAgICBzdHJva2VNaXRlcmxpbWl0PSIxMCIKICAgICAgIGlkPSJwYXRoNzg2IiAvPgogICAgPHBhdGgKICAgICAgIGQ9Im0gMTMuNTg4Myw3Ny41MDk1IGMgOC4xODA0LDAgOC4xODA0LDMuODU5IDE2LjM1ODksMy44NTkgOC4xNzg0LDAgOC4xODA0LC0zLjg1OSAxNi4zNjA3LC0zLjg1OSA4LjE4MDQsMCA4LjE3ODUsMy44NTkgMTYuMzU4OSwzLjg1OSA4LjE4MDQsMCA4LjE3ODUsLTMuODU5IDE2LjM1ODksLTMuODU5IDguMTgwNCwwIDguMTgwMywzLjg1OSAxNi4zNTg4LDMuODU5IDguMTc4NSwwIDguMTgwNSwtMy44NTkgMTYuMzYwNSwtMy44NTkgOC4xODEsMCA4LjE4MSwzLjg1OSAxNi4zNjEsMy44NTkiCiAgICAgICBzdHJva2U9IiNmZmZmZmYiCiAgICAgICBzdHJva2VNaXRlcmxpbWl0PSIxMCIKICAgICAgIGlkPSJwYXRoNzg4IiAvPgogICAgPHBhdGgKICAgICAgIGQ9Im0gNzAuODQ3Myw4LjE4NjgzIGMgLTMzLjIzODMsMCAtNjAuMTgzNywyNi45NjY1NyAtNjAuMTgzNyw2MC4yMzA5NyAwLDMzLjI2NDIgMjYuOTQ1NCw2MC4yMzEyIDYwLjE4MzcsNjAuMjMxMiAzMy4yMzg3LDAgNjAuMTgzNywtMjYuOTU5IDYwLjE4MzcsLTYwLjIzMTIgMCwtMzMuMjcyMSAtMjYuOTQ1LC02MC4yMzA5NyAtNjAuMTgzNywtNjAuMjMwOTcgeiBNIDcwLjgzMTksMTIzLjQwOCBDIDQwLjQ3NzgsMTIzLjQwOCAxNS45MDU4LDk4LjgwNTMgMTUuOSw2OC40Mjc0IDE1LjksMzguMDE2NyA0MC41MzU3LDEzLjM3OTEgNzAuOTEwOSwxMy40MzcgYyAzMC4zNzUxLDAuMDU3OSA1NC45MTExLDI0LjY1ODkgNTQuODg0MSw1NS4wMzI5IC0wLjAyNywzMC4zNzQgLTI0LjYwOSw1NC45NDgxIC01NC45NjMxLDU0LjkzODEgeiIKICAgICAgIGZpbGw9IiNmZmZmZmYiCiAgICAgICBpZD0icGF0aDc5MCIgLz4KICAgIDxwYXRoCiAgICAgICBkPSJtIDQzLjA4NDQsOTUuNzA4NSBjIC0wLjE5MjgsLTAuNjY1NiAtMS4xMDg2LC0xLjMyNzUgLTEuODIsLTEuMjM4NyAtMS4wMTAyLDAuMTI5MyAtMi4wMTY2LDAuMjk3MSAtMy4yMzEzLDAuNDc4NSAwLjQ0NzMsLTEuMTg2NiAwLjgyNTIsLTIuMTk5NiAxLjIxMDgsLTMuMjEyNiAwLjMzMzUsLTAuODc5OSAtMC4zODU2LC0xLjMwNjMgLTAuODM2NywtMS43NzcxIC0wLjQ1MTIsLTAuNDcwOCAtMC44MDQsMC4xMjM1IC0xLjExMDYsMC4zNjY2IC0xLjYzMywxLjI5NDcgLTMuMjE1OCwyLjY1MzEgLTQuODY0MiwzLjkyNjYgLTAuNzgyOCwwLjYwMzkgLTAuMTkyOCwwLjk1NTEgMC4xMjM0LDEuMzg5MiAwLjMxNjEsMC40MzQxIDAuNjM4MSwwLjkyMjMgMS4yODQsMC4zNTMxIDAuNzQ0MiwtMC42NTQxIDEuNTMwOCwtMS4yNjE5IDIuMzEzNiwtMS44OTY3IDAuMDI4OSwwLjA3MzMgMC4wNTU5LDAuMTA4MSAwLjA0ODIsMC4xMzEyIC0wLjE1NDMsMC40NDc3IC0wLjMyMiwwLjg5MTQgLTAuNDcyNCwxLjM0MSAtMC4zMTQzLDAuOTQ5MyAwLjI5MywxLjY0MiAxLjI4OTgsMS40ODU3IDAuNDE0NSwtMC4wNjU2IDAuODM2OCwtMC4xOTI5IDEuMzMwMywwLjAxOTMgLTAuODAyLDAuNjU4IC0xLjQ5OCwxLjI3NTQgLTIuMjQyMiwxLjgyNTMgLTAuNjExMiwwLjQ1MTUgLTAuMzE4MSwwLjgyIDAuMDUwMSwxLjE1ODEgMC4zNjgzLDAuMzM3IDAuNTIyNSwxLjIxNyAxLjMxMSwwLjU3OCAxLjc3MjUsLTEuNDI5OSAzLjUzOTEsLTIuODY0OCA1LjMsLTQuMzA0MiAwLjE4MTMsLTAuMTQ4NiAwLjQxNDUsLTAuMjg3NSAwLjMxNjIsLTAuNjIzMyB6IgogICAgICAgZmlsbD0iI2ZmZmZmZiIKICAgICAgIGlkPSJwYXRoNzkyIiAvPgogICAgPHBhdGgKICAgICAgIGQ9Im0gNzUuMzEwNSwzMC44MDI0IGMgMS4yNjA5LDAuNTIwOSAxLjc2MDMsMC4yODE3IDIuMDIwNSwtMS4wMjI2IDAuMDU3OSwtMC4yODM3IDAuMTA5OSwtMC41NjU0IDAuMTc5MywtMC44NDUyIDAuMDU2LC0wLjIyNzYgMCwtMC42MTE2IDAuMzQ5LC0wLjU2MzQgMC4zNDksMC4wNDgzIDAuNzk2MywtMC4wMjMxIDAuOTIzNSwwLjQ5NzggMC4xMjczLDAuNTIxIDAuMjg1NCwwLjk4MjIgMC40MjgsMS40NzIyIDAuNDAxLDEuMzUwNyAwLjY3NjcsMS41NjEgMi4wNTE0LDEuNjMyNCAwLjUxNjcsMC4wMjcgMC42MzI0LC0wLjE0ODYgMC40OTU1LC0wLjYwOTcgLTAuMjE1OSwtMC43MzUyIC0wLjQwMywtMS40Nzk5IC0wLjYzMjQsLTIuMjExMiAtMC4xMDYsLTAuMzMzOCAtMC4xOTI4LC0wLjUzMDYgMC4yNjQxLC0wLjcyMTcgMS4xMTQ0LC0wLjQ3MDcgMS40MTUyLC0xLjQ4MTggMS40OTQyLC0yLjUyMTggMCwtMS4yODUgLTAuNzcxMiwtMi4yMjQ3IC0yLjIxMzMsLTIuNjEwNiAtMS4xNzIyLC0wLjMxMjYgLTIuMzc1MywtMC41MDc1IC0zLjU2MjksLTAuNzcxOCAtMC40NDM1LC0wLjA5NjUgLTAuNjY1MiwwLjA4MyAtMC43NDgxLDAuNTA3NSAtMC40NTUsMi4zMTU0IC0wLjkxNzcsNC42NDYyIC0xLjM2NjksNi45NzMxIC0wLjA1OTgsMC4zMTQ1IC0wLjEwNDEsMC42MjEzIDAuMzE4MSwwLjc5NSB6IG0gMy4zODE3LC01Ljk4MTQgYyAwLjk3MzYsLTAuMDk4NCAxLjkxMjYsMC40NjUgMS45MDI5LDEuMDQxOSAtMC4wMDk2LDAuNTc2OSAtMC4zNDcsMC44NTY3IC0xLjAwMDYsMC44NzQxIC0wLjQwMywtMC4zMzk2IC0xLjMzOCwwLjIxMjIgLTEuNDc0OSwtMC42NTAzIC0wLjA1NzksLTAuMzY0NyAtMC4xOTI4LC0xLjE3ODkgMC41NzI2LC0xLjI1OCB6IgogICAgICAgZmlsbD0iI2ZmZmZmZiIKICAgICAgIGlkPSJwYXRoNzk0IiAvPgogICAgPHBhdGgKICAgICAgIGQ9Im0gNjIuNjE0OCwxMDYuMjg2IGMgLTAuNTQ3NSwtMC4xOCAtMS4xMDY2LC0wLjQwNSAtMS4yOTk0LDAuNTA1IC0wLjIxMDIsMS4wMDIgLTAuNTMwMiwxLjk3OCAtMC44NjE4LDMuMTg0IC0wLjUwNzEsLTEuNTA5IC0wLjk3NzUsLTIuODAxIC0xLjM2ODksLTQuMTE3IC0wLjI1NjQsLTAuODYxIC0wLjk5MjksLTAuODUzIC0xLjYxMzcsLTAuOTY1IC0wLjY4NDQsLTAuMTEyIC0wLjU2MTEsMC41NzkgLTAuNjY5LDAuOTY1IC0wLjU3ODQsMS45OTkgLTEuMDc1OCw0LjAyNSAtMS42OTY2LDYuMDEyIC0wLjMwNDcsMC45OCAwLjQxODMsMC44OTEgMC45MDAzLDEuMDU5IDAuNTEyOSwwLjE3NiAxLjA1NDYsMC4zODYgMS4yNDk0LC0wLjQ2MyAwLjIzMzIsLTEuMDE3IDAuNTQzNywtMi4wMTYgMC44NTc5LC0zLjE1MyAwLjEyOTIsMC4yOTcgMC4yMTc5LDAuNDY3IDAuMjc3NiwwLjY0NSAwLjM4NTYsMS4xNTcgMC43ODg2LDIuMzAyIDEuMTU2OCwzLjQ2MSAwLjI2NDIsMC44NTcgMS4wMzU0LDAuODA1IDEuNjUwNCwwLjg5IDAuNjE1LDAuMDg1IDAuNDg3OCwtMC41NzkgMC41ODk5LC0wLjkyOCAwLjU3ODQsLTIuMDAzIDEuMDY2MiwtNC4wMzEgMS42OTY3LC02LjAxNSAwLjI4NzIsLTAuOTYgLTAuMzc3OSwtMC45MTggLTAuODY5NiwtMS4wOCB6IgogICAgICAgZmlsbD0iI2ZmZmZmZiIKICAgICAgIGlkPSJwYXRoNzk2IiAvPgogICAgPHBhdGgKICAgICAgIGQ9Im0gMTA5LjA1Miw5NC4wODIgYyAtMC42MzIsLTAuMDkwNyAtMS4yNTUsLTAuMjc3OSAtMS44ODksLTAuMzM3NyAtMC41MjMsLTAuMDQ4MiAtMC42NTQsLTAuMjI5NiAtMC42NzEsLTAuNzcxOCAtMC4wNDMsLTEuMzUwNiAtMS4yNjMsLTIuNDU4MiAtMi41OTIsLTIuNDczNiAtMC45MTIsLTAuMDI1MSAtMS42MDksMC40MzIyIC0yLjE2OSwxLjA3MjggLTAuNjk2LDAuNzk2OSAtMS4yOTMsMS42Nzg2IC0xLjk5MTIsMi40NzM2IC0wLjQ3NDMsMC41NDIyIC0wLjQxNDUsMC44Nzc5IDAuMTUwNCwxLjMwNDMgMS42ODg4LDEuMjc3MyAzLjM2NDgsMi41NzU5IDUuMDAwOCwzLjkxNjkgMC41NzksMC40NjMgMC44NywwLjQxNDggMS4yOTYsLTAuMTY2IDAuNzcxLC0xLjA1MTUgMC44MDIsLTEuMDI2NCAtMC4yMzcsLTEuODMzIC0wLjIyOCwtMC4xNzc1IC0wLjQ2NywtMC4zNDM0IC0wLjY3NSwtMC41NDIyIC0wLjE2LC0wLjE1MjQgLTAuNTU3LC0wLjIxNDEgLTAuMzM0LC0wLjU2MTQgMC4xODIsLTAuMjc5OCAwLjMzOCwtMC42NDY0IDAuODAzLC0wLjU1MTkgMC40NjQsMC4wOTQ2IDAuOTY0LDAuMTA4MSAxLjQxMywwLjI3MjEgMS4wMzUsMC4zODU5IDEuNjc5LC0wLjAxNzQgMi4yNDIsLTAuODc2IDAuMzcyLC0wLjU1NzYgMC4zOTEsLTAuODIyIC0wLjM0NywtMC45MjYxIHogbSAtNS43ODQsMS4wNDc3IGMgLTAuMTQ1LDAuMDExNSAtMS4xODIsLTAuODc5OSAtMS4xNzIsLTEuMDA5MiAwLjAyNSwtMC4zMzk1IDEuMjExLC0xLjQ3NiAxLjU0MiwtMS40NzYgMC40NDYsMC4wODg3IDAuNzcxLDAuMzEwNiAwLjgwOCwwLjgwMDcgMC4wMjEsMC4yOTkxIC0wLjk1OCwxLjY2NTIgLTEuMTc4LDEuNjg0NSB6IgogICAgICAgZmlsbD0iI2ZmZmZmZiIKICAgICAgIGlkPSJwYXRoNzk4IiAvPgogICAgPHBhdGgKICAgICAgIGQ9Im0gNjEuMTIyNiwzMC45OTM0IGMgMC4wNjc1LDAuMzg1OSAwLjE5MjgsMC42OTQ2IDAuNjcyOCwwLjYxOTMgMS43MzUyLC0wLjMwMSAzLjQ4MiwtMC41NjE0IDUuMjA1NiwtMC45MjAzIDAuOTEsLTAuMTkzIDAuMjgzNCwtMC44Nzk5IDAuMjkzLC0xLjM1MDcgMC4wMDk3LC0wLjUwMzYgLTAuMjY0MSwtMC42NTYgLTAuNzU3NywtMC41NTk1IC0wLjk0MjcsMC4xODMzIC0xLjg5OSwwLjMwODcgLTIuODQxOCwwLjQ5NTkgLTAuNDg5NywwLjA5NjQgLTAuNjE4OSwtMC4xMjc0IC0wLjY2NTIsLTAuNTQ2MSAtMC4wNDA0LC0wLjM3MjQgLTAuMDk0NCwtMC42NjE4IDAuNDQzNSwtMC43MjE2IDAuNzk2MiwtMC4wODQ5IDEuNTc1MSwtMC4zMTA3IDIuMzcxNCwtMC4zOTU2IDAuODYxOCwtMC4wOTI2IDAuNzAzNywtMC42MzQ4IDAuNjExMSwtMS4xODI3IC0wLjA5MjUsLTAuNTQ4IC0wLjIwODIsLTAuOTk3NiAtMC45NjM5LC0wLjc4OTIgLTAuNzA3NiwwLjE5MjkgLTEuNDU3NiwwLjIyMzggLTIuMTcwOSwwLjQwMzMgLTAuNTAxMywwLjEyNzMgLTAuNzQ2MiwwLjA5NjQgLTAuODUwMywtMC40OTAxIC0wLjExMzcsLTAuNjMyOSAwLjIzNzIsLTAuNjg1IDAuNjg0NSwtMC43NTI1IDAuNzkyNCwtMC4xMTc3IDEuNTgwOSwtMC4yNzAyIDIuMzczMywtMC4zODU5IDAuNTA3MSwtMC4wNzcyIDAuODk2NSwtMC4yMTgxIDAuNjkyMSwtMC44NTY3IC0wLjE2MzgsLTAuNTEzMyAwLjA2OTQsLTEuMzIzNiAtMC45ODksLTEuMTAzNyAtMS41MDU4LDAuMzE0NSAtMy4wMjMxLDAuNTc4OSAtNC41NDYyLDAuNzcxOCAtMC43Mjg3LDAuMDkyNiAtMC44MjksMC40MTg3IC0wLjcyMSwxLjAyNDYgMC4zOTEzLDIuMjUxNyAwLjc3NSw0LjUwMTUgMS4xNTg3LDYuNzM5NyB6IgogICAgICAgZmlsbD0iI2ZmZmZmZiIKICAgICAgIGlkPSJwYXRoODAwIiAvPgogICAgPHBhdGgKICAgICAgIGQ9Im0gODYuODQ1NSwxMDcuMTk3IGMgLTAuNTYyMywwLjIyOCAtMS4xMzYzLDAuNDI1IC0xLjcxOTcsMC41OTIgLTAuNDgzOSwwLjE1NCAtMC44MzI5LDAuMzUxIC0wLjU0MzcsMC45NjUgMC4yMjk0LDAuNDc0IDAuMTY3NywxLjI2NCAxLjA4MzUsMC44OTcgMC4xNjc4LC0wLjA2OCAwLjM0NzEsLTAuMjI2IDAuNTEwOSwtMC4wMjEgMC4xNjM5LDAuMjA0IDAuMDU1OSwwLjQ0NyAtMC4wMjUsMC42NCAtMC4yMzUyLDAuNTU0IC0wLjcyODgsMC43OTEgLTEuMjgyMSwwLjg4OCAtMC41NTM0LDAuMDk2IC0xLjAxMDMsLTAuMTY4IC0xLjI4NiwtMC42NSAtMC4zODY1LC0wLjY2OCAtMC42NDc5LC0xLjQgLTAuNzcxMiwtMi4xNjEgLTAuMTc5MywtMS4xMjUgMC44OTA3LC0yLjEwOSAxLjkxMDYsLTEuNjE3IDAuODQwNiwwLjQwNSAxLjQ3MywwLjA4MSAyLjE4NjQsLTAuMTI4IDAuNDg3NywtMC4xNDIgMC40ODk3LC0wLjQzNCAwLjIwODIsLTAuNzg5IC0wLjY1MTcsLTAuODIyIC0xLjU0MjQsLTEuMDgyIC0yLjU1MjcsLTEuMTI1IC0xLjA2MzEsLTAuMDAzIC0yLjA5MTIsMC4zODEgLTIuODkxOSwxLjA4MSAtMC45NjQsMC44NjQgLTEuMzQ5NiwxLjk2IC0wLjk2NCwzLjIxMiAwLjQ4NzgsMS42MzkgMC43NzEyLDMuNDc0IDIuODA3MSw0LjAxNCAxLjU2MTcsMC40MTEgMi45MzgzLC0wLjA3NCA0LjA0ODgsLTEuMTgxIDEuMjAxMSwtMS4yMDQgMC45MSwtMi42MDcgMC4zODU2LC00LjAzNyAtMC4yMjk1LC0wLjYwOSAtMC40NTMxLC0wLjg2OCAtMS4xMDQ4LC0wLjU4IHoiCiAgICAgICBmaWxsPSIjZmZmZmZmIgogICAgICAgaWQ9InBhdGg4MDIiIC8+CiAgICA8cGF0aAogICAgICAgZD0ibSA5OC44MDI5LDEwMy41NTIgYyAtMC43MDU3LDAuNTUyIC0xLjQ3MywxLjAyNCAtMi4xODA2LDEuNTc2IC0wLjM4NTYsMC4zMDEgLTAuNTc4NCwwLjIwNyAtMC44MjcxLC0wLjE1NiAtMC4yNDg3LC0wLjM2MyAtMC4zMjU4LC0wLjU3OSAwLjA4ODcsLTAuODUxIDAuNjQyLC0wLjQyMyAxLjI1NzEsLTAuODg2IDEuODgxNywtMS4zMzMgMC4yMDQ0LC0wLjE0NyAwLjQ1MTIsLTAuMjY3IDAuNDI4MSwtMC42MjIgLTAuMTY0MiwtMC40MzggLTAuNDQzMiwtMC44MjUgLTAuODA3OSwtMS4xMTkgLTAuMzU4NiwtMC4yNTIgLTAuNjM2MiwwLjEzMyAtMC45MTU4LDAuMzI2IC0wLjU3ODQsMC40MDIgLTEuMTgzOCwwLjc3MiAtMS43MjM2LDEuMjI0IC0wLjQ0OTIsMC4zNzQgLTAuNTc4NCwwLjAzMyAtMC44MDAxLC0wLjIzNCAtMC4yNjYxLC0wLjMxIC0wLjI2OTksLTAuNTAzIDAuMTAyMiwtMC43NDYgMC43MjMsLTAuNDczIDEuMzkyLC0xLjAyOSAyLjEyMDgsLTEuNDg4IDAuNTk3NiwtMC4zNzQ0IDAuNDcwNCwtMC43MzcyIDAuMTE5NSwtMS4xNjk0IC0wLjMxMDQsLTAuMzg1OSAtMC40OTk0LC0wLjk2NDcgLTEuMTg1NywtMC40NDM4IC0xLjI1NzEsMC45Mzc4IC0yLjU0ODgsMS44MzEyIC0zLjgzNDgsMi43MzQyIC0wLjQwNDksMC4yODQgLTAuNDIyMiwwLjU2NSAtMC4xMzg4LDAuOTY1IDEuMzMwMywxLjg0NiAyLjY0MzMsMy43MDQgMy45NjAxLDUuNTYyIDAuMjM5MSwwLjMzNiAwLjQ3MjMsMC40NjkgMC44Njc2LDAuMTgyIDEuMzE4NywtMC45NjUgMi42NDg0LC0xLjkxNCAzLjk4OSwtMi44NDYgMC42MzA4LC0wLjQzOCAwLjI0ODgsLTAuODAzIC0wLjAyMTIsLTEuMTk4IC0wLjI2OTksLTAuMzk2IC0wLjUyNjQsLTAuODMyIC0xLjEyMjEsLTAuMzYzIHoiCiAgICAgICBmaWxsPSIjZmZmZmZmIgogICAgICAgaWQ9InBhdGg4MDQiIC8+CiAgICA8cGF0aAogICAgICAgZD0ibSA0OS4wMDMzLDEwMC40MiBjIC0wLjI3LC0wLjE5MyAtMC41NTUzLC0wLjEwMiAtMC43OTgyLDAuMDg3IC0xLjk1MTEsMS41MTggLTMuOTAwMywzLjAzOCAtNS44NDc2LDQuNTYxIC0wLjI1NjQsMC4xOTMgLTAuNDQ3MywwLjQ3NyAtMC4wNzcxLDAuNjgzIDAuNjgyNSwwLjM4NiAxLjMwNzIsMS4zNTEgMi4yMTUzLDAuMzMyIDAuMDQ0MSwtMC4wNjcgMC4xMTI5LC0wLjExNCAwLjE5MTUsLTAuMTMxIDAuMDc4NywtMC4wMTcgMC4xNjA4LC0wLjAwMiAwLjIyODcsMC4wNDEgMC43MjUsMC40NzQgMS40NTU3LDAuOTM5IDIuMTc4NywxLjQxNCAwLjE5MjgsMC4xMzEgMC4xMjkxLDAuMzM2IDAuMTA2LDAuNTI1IC0wLjEwMjIsMC44MjggMC40NzA0LDEuNzU5IDEuMjkzNywxLjgwNCAwLjg1OTgsMC4wNDQgMC40NTUsLTAuODY1IDAuNzI0OSwtMS4yOTEgMC4wMzE4LC0wLjA1NiAwLjA1NCwtMC4xMTggMC4wNjU1LC0wLjE4MSAwLjUwMTMsLTIuMDU1IDEuMDAyNiwtNC4xMTIgMS41NDI0LC02LjMzOSAtMC4yMTU5LC0wLjgzMyAtMS4xNzAzLC0xLjAwNyAtMS44MjM4LC0xLjUwNSB6IG0gLTEuMjM0LDUuMTU2IGMgLTEuNTA1NywtMC44ODYgLTEuNTA1NywtMC44ODYgLTAuMjgzNCwtMS44NjIgMC4yNDY4LC0wLjE5MyAwLjUwMTMsLTAuMzg2IDAuODYzOCwtMC42NjQgLTAuMDkyMSwwLjg2MiAtMC4yODY5LDEuNzEgLTAuNTgwNCwyLjUyNiB6IgogICAgICAgZmlsbD0iI2ZmZmZmZiIKICAgICAgIGlkPSJwYXRoODA2IiAvPgogICAgPHBhdGgKICAgICAgIGQ9Im0gNDYuNTE0MywzNS4zODMgYyAwLjk2MzksMS4zMzkxIDIuNDQ0NiwxLjczNjUgNC4wMTQsMS4xNTc3IDEuNjMxMSwtMC41OTA0IDIuODkyLC0yLjE4NDIgMi44MjY0LC0zLjY0MSAtMC4wMzQyLC0wLjM0OTMgLTAuMTE0NiwtMC42OTI1IC0wLjIzOTEsLTEuMDIwNyAtMC4wMTc0LC0wLjA5NTUgLTAuMDY4NCwtMC4xODE2IC0wLjE0MzcsLTAuMjQyOCAtMC4wNzUzLC0wLjA2MTIgLTAuMTY5OSwtMC4wOTM1IC0wLjI2NjksLTAuMDkxIC0wLjU1OTEsMCAtMS41ODY3LDEuMDAxNCAtMS41OTQ0LDEuNjAxNSAtMC4wMDk3LDAuODA4NSAtMC41MjY0LDEuMjEzNyAtMS4xNzIzLDEuNDcyMiAtMC42MTExLDAuMjQzMSAtMS4xNTY3LDAgLTEuNTE3MywtMC41MDc0IC0wLjQzMDEsLTAuNTk2MyAtMC44MTMsLTEuMjI1MyAtMS4xNDUyLC0xLjg4MTMgLTAuMjY5OSwtMC41NTM4IC0wLjIxOTgsLTEuMTU3NyAwLjI4MzQsLTEuNTg4IDAuNTAzMiwtMC40MzAyIDEuMTI2LC0wLjcyMTYgMS44NDEyLC0wLjMyOTkgMC41MDEzLDAuMjc1OSAxLjg1MjgsLTAuMTkzIDIuMTQwMSwtMC42ODExIDAuMTkyOCwtMC4zMTI2IC0wLjA1NCwtMC40ODgyIC0wLjIxMDIsLTAuNjYxOCAtMC4yNTk3LC0wLjI5NCAtMC41ODA5LC0wLjUyNzMgLTAuOTQwNywtMC42ODM0IC0wLjM1OTgsLTAuMTU2IC0wLjc0OTUsLTAuMjMxIC0xLjE0MTUsLTAuMjE5NiAtMi41Nzk2LDAuMDA5NiAtNC41OTA1LDEuOTk3IC00LjMxODYsNC4xNjk2IDAuMTU0MiwxLjIyMzMgMC45MTE5LDIuMTg4IDEuNTg0OCwzLjE0NyB6IgogICAgICAgZmlsbD0iI2ZmZmZmZiIKICAgICAgIGlkPSJwYXRoODA4IiAvPgogICAgPHBhdGgKICAgICAgIGQ9Im0gNzMuOTA1LDEwOC42NjEgYyAtMC42NTM1LC0xLjcwMiAtMS4xMDI4LC0xLjkyOSAtMi44NTE0LC0xLjU0MyAtMC4xNDI3LDAuMDE1IC0wLjI3NzksMC4wNzEgLTAuMzg5NywwLjE2MSAtMC4xMTE4LDAuMDkgLTAuMTk1NCwwLjIxIC0wLjI0MDgsMC4zNDYgLTAuNzMyNiwyLjM0NiAtMS40NjI3LDQuNjk2IC0yLjE5MDEsNy4wNSAtMC4wNjM3LDAuMjA3IC0wLjE1NjIsMC40NSAwLjA5MDYsMC42MTIgMC41MjYzLDAuMzQ3IDEuOTA4NywtMC4xMzkgMi4xNDU4LC0wLjc1MSAwLjA5ODMsLTAuMjU0IDAuMTAwMywtMC41NjUgMC41MjI1LC0wLjU1NyAwLjc3MTIsMC4wMTUgMS41NDI0LDAgMi4zMTM1LC0wLjAzNyAwLjI3MzgsLTAuMDExIDAuNDQzNSwwLjA5MyAwLjQ5MTcsMC4zNCAwLjE0ODQsMC43NzIgMC42MTExLDAuOTk5IDEuMjQ5MywwLjgzMyAxLjMwNTIsLTAuMDMyIDEuMzExLC0wLjAzNiAwLjg4MywtMS4xNTcgLTAuNjczNSwtMS43NyAtMS4zNDgzLC0zLjUzNiAtMi4wMjQ0LC01LjI5NyB6IG0gLTIuMDM1OSwzLjQ4NyBjIC0wLjU3ODQsMCAtMC42NjMyLC0wLjE2MiAtMC40ODk3LC0wLjY1NCAwLjIxMDIsLTAuNjAyIDAuMzg1NiwtMS4yMTYgMC42MzA0LC0xLjk5OSAwLjI1NjUsMC42NTYgMC40NDU0LDEuMTI4IDAuNjI0NywxLjYwMyAwLjQwMSwxLjA3NSAwLjM5MTQsMS4wMzggLTAuNzY1NCwxLjA1IHoiCiAgICAgICBmaWxsPSIjZmZmZmZmIgogICAgICAgaWQ9InBhdGg4MTAiIC8+CiAgICA8cGF0aAogICAgICAgZD0ibSA5MC44NDgsMzYuNDExNCBjIDAuNDUxMiwwLjI0NyAwLjg4MTEsMC45MDUgMS40MDE3LDAuMDM0OCAwLjY4ODIsLTEuMTU3NyAxLjQzNDQsLTIuMjc0OSAyLjE1MTYsLTMuNDExNCAwLjg2MzcsLTEuMzY2MSAwLjg4NjgsLTEuNDA2NiAyLjI3NSwtMC41MzI1IDAuNzM4NCwwLjQ2NjkgMC45MzMxLC0wLjAzNjcgMS4yNDM1LC0wLjQ4NjIgMC4zMzE2LC0wLjQ4MjQgMC40NjI3LC0wLjg1MDkgLTAuMTkyOCwtMS4yMzY4IC0xLjU0MjQsLTAuOTE5OCAtMy4wNTU4LC0xLjg3OTQgLTQuNTQwMywtMi44Nzg4IC0wLjYzMDUsLTAuNDIwNyAtMC45NDI4LC0wLjMwODggLTEuMzQ5NiwwLjMxNjQgLTAuNDUxMiwwLjY4ODggLTAuMzU4NiwxLjA1NTQgMC4zMzkzLDEuNDI1OSAwLjQwNDksMC4yMTQyIDAuODU3OSwwLjQxMSAxLjEzNzUsMC44MTIzIC0wLjE0MjcsMC4yMjk2IC0wLjI1ODQsMC40MjI2IC0wLjM4NTYsMC42MTE3IC0wLjg3MzQsMS4zODE1IC0xLjcyMTcsMi43Nzg0IC0yLjYyNTksNC4xMzg3IC0wLjQ4NTgsMC43NDg2IDAuMDc1MiwwLjk0NzQgMC41NDU2LDEuMjA1OSB6IgogICAgICAgZmlsbD0iI2ZmZmZmZiIKICAgICAgIGlkPSJwYXRoODEyIiAvPgogICAgPHBhdGgKICAgICAgIGQ9Ik0gOTIuNjcwMSw3OC40MjQxIEMgOTIuMTc0Niw3Ni4zOTA0IDkxLjY4NDksNzQuMzg3NiA5MS4xODk0LDcyLjM2MTYgOTEuMTY0LDcyLjI1NTkgOTEuMTExMiw3Mi4xNTg3IDkxLjAzNjMsNzIuMDggOTAuOTYxNCw3Mi4wMDEyIDkwLjg2Nyw3MS45NDM2IDkwLjc2MjcsNzEuOTEzMSA5MC42NTg0LDcxLjg4MjUgOTAuNTQ4LDcxLjg4MDEgOTAuNDQyNCw3MS45MDYgYyAtMC4xMDU1LDAuMDI1OSAtMC4yMDIzLDAuMDc5MyAtMC4yODA2LDAuMTU0NiBsIC00Ljc2Niw0LjU2NTIgYyAtMC4wNzQ0LDAuMDcxNyAtMC4xMjg3LDAuMTYxNyAtMC4xNTc0LDAuMjYxIC0wLjAyODgsMC4wOTkzIC0wLjAzMDksMC4yMDQ1IC0wLjAwNjQsMC4zMDQ5IDAuMDI0NiwwLjEwMDQgMC4wNzUxLDAuMTkyNiAwLjE0NjUsMC4yNjczIDAuMDcxNCwwLjA3NDcgMC4xNjExLDAuMTI5NCAwLjI2MDIsMC4xNTg2IDAuMTc3NCwwLjA1MDEgMC4zNTA5LDAuMDk4NCAwLjUyODMsMC4xMzUgMC4zODU2LDAuMDgzIDAuMzQ3LDAuMjEyMyAwLjE2NzcsMC40ODQzIC0wLjk5ODcsMS41MjIzIC0yLjMxNCwyLjgxMSAtMy44NTU5LDMuNzc4IGwgLTAuMDM4NiwwLjAyMzEgYyAtMS4zMjkxLDAuNjMyNCAtMi43MzU4LDEuMDg2NiAtNC4xODM3LDEuMzUwNyAtMS40OTcxLDAuMjg3MyAtMy4wMTM0LDAuNDYyNyAtNC41MzY1LDAuNTI0OCAtMC4wNDgxLDAuMDAxNiAtMC4wOTU5LC0wLjAwNjYgLTAuMTQwNywtMC4wMjQxIC0wLjA0NDgsLTAuMDE3NSAtMC4wODU1LC0wLjA0NCAtMC4xMTk4LC0wLjA3NzcgQyA3My40MjUzLDgzLjc3NzkgNzMuMzk4Miw4My43Mzc2IDczLjM4LDgzLjY5MzEgNzMuMzYxOCw4My42NDg1IDczLjM1MjksODMuNjAwOCA3My4zNTM3LDgzLjU1MjcgViA2Mi4yNTUgYyAwLC0wLjAyNzQgMC4wMDU0LC0wLjA1NDUgMC4wMTU4LC0wLjA3OTggMC4wMTA1LC0wLjAyNTMgMC4wMjU4LC0wLjA0ODIgMC4wNDUyLC0wLjA2NzYgMC4wMTkzLC0wLjAxOTMgMC4wNDIzLC0wLjAzNDcgMC4wNjc1LC0wLjA0NTEgMC4wMjUzLC0wLjAxMDUgMC4wNTI0LC0wLjAxNTkgMC4wNzk3LC0wLjAxNTkgMC4xOTI4LDAgMC40MjgsMC4wMzg2IDAuOTkyOSwwLjAzMjggMS4xMTA1LC0wLjAxMTYgMi4yNjczLC0wLjAxMTYgMy4zODE3LC0wLjA3NzIgMC4zNjI0LC0wLjAyMTIgMC41NjQ5LC0wLjAwOTYgMC43OTYyLDAuMTY0IDAuNDY5OSwwLjM3MTYgMS4wNjI0LDAuNTUyMyAxLjY1OTUsMC41MDYyIDAuNTk3MSwtMC4wNDYxIDEuMTU0OSwtMC4zMTU4IDEuNTYyMiwtMC43NTUxIDAuNDAyMywtMC40NDExIDAuNjI3MSwtMS4wMTU2IDAuNjMxLC0xLjYxMjggMC4wMDM5LC0wLjU5NzIgLTAuMjEzMywtMS4xNzQ3IC0wLjYwOTgsLTEuNjIxIC0wLjM5ODIsLTAuNDQ3IC0wLjk1MDUsLTAuNzI2OCAtMS41NDYyLC0wLjc4MzQgLTAuNTk1NywtMC4wNTY1IC0xLjE5MDgsMC4xMTQ0IC0xLjY2NTgsMC40Nzg1IC0wLjEzMzUsMC4xMjQgLTAuMzA2LDAuMTk3NyAtMC40ODc4LDAuMjA4NCAtMS41NTI3LC0wLjAwNzcgLTMuMTA0LC0wLjAwNzcgLTQuNjU0MSwwIC0wLjA5NTMsMC4wMTIzIC0wLjE5MTUsLTAuMDEzNCAtMC4yNjgsLTAuMDcxNCB2IC0yLjQzNSBjIC0wLjAwMTEsLTAuMDgzMSAwLjAyNzYsLTAuMTYzOSAwLjA4MSwtMC4yMjc3IDAuMTA5OSwtMC4xMTQ2IDAuMjQwOCwtMC4yMDY5IDAuMzg1NSwtMC4yNzIgMi41MDY0LC0xLjI3MzUgMy44MDU5LC0zLjM2NTEgMy44MDc4LC02LjE0OTMgMCwtNC40MDUgLTQuMjkzNiwtNy42MDk5IC04LjUzOSwtNi40NTYxIC0zLjM2NjIsMC45MTQ2IC01LjU1MjYsNC4yNjAzIC00LjkxODMsNy42NzM2IDAuNDY2NiwyLjUwODMgMS45NDE1LDQuMjY0MiA0LjMzOTksNS4xOTQyIDAuMDksMC4wMzI2IDAuMTc2LDAuMDc1MyAwLjI1NjQsMC4xMjczIDAuMDQzNiwwLjAzMzIgMC4wNzg3LDAuMDc2MSAwLjEwMjQsMC4xMjU0IDAuMDIzOCwwLjA0OTMgMC4wMzU2LDAuMTAzNSAwLjAzNDUsMC4xNTgzIHYgMS45OTEyIGMgMCwwLjA0NTQgLTAuMDA5LDAuMDkwNCAtMC4wMjY1LDAuMTMyMyAtMC4wMTc1LDAuMDQxOSAtMC4wNDMxLDAuMDggLTAuMDc1NCwwLjExMTkgLTAuMDMyMiwwLjAzMiAtMC4wNzA1LDAuMDU3MiAtMC4xMTI2LDAuMDc0MiAtMC4wNDIxLDAuMDE3IC0wLjA4NzEsMC4wMjU1IC0wLjEzMjUsMC4wMjUgLTEuNjY3NywtMC4wMTkzIC0zLjMzNzMsLTAuMDExNSAtNS4wMTI4LDAgLTAuMjMwNCwtMC4wMDExIC0wLjQ1NDMsLTAuMDc2OSAtMC42MzgxLC0wLjIxNjEgLTAuNDc2MywtMC4zNjE3IC0xLjA3MiwtMC41MjkgLTEuNjY2OCwtMC40NjgxIC0wLjU5NDgsMC4wNjA4IC0xLjE0NDMsMC4zNDU0IC0xLjUzNzUsMC43OTYyIC0wLjM5NDMsMC40NDMgLTAuNjA5NiwxLjAxNzEgLTAuNjAzOSwxLjYxMDQgMC4wMDU3LDAuNTkzMyAwLjIzMiwxLjE2MzIgMC42MzQ4LDEuNTk4NiAwLjQwMjcsMC40MzUzIDAuOTUzMSwwLjcwNSAxLjU0MzcsMC43NTYzIDAuNTkwNiwwLjA1MTMgMS4xNzkyLC0wLjExOTQgMS42NTA5LC0wLjQ3ODggMC4xODEsLTAuMTQyMSAwLjQwNjMsLTAuMjE1OCAwLjYzNjIsLTAuMjA4MyAxLjYxNzYsMCAzLjIzNzEsMC4wMjMxIDQuODU0NywwIDAuMTQ1NSwtMC4wMjE1IDAuMjk0LDAuMDEgMC40MTgzLDAuMDg4NyAwLjAxOTgsMC4wMTg4IDAuMDM1MywwLjA0MTYgMC4wNDU2LDAuMDY2OSAwLjAxMDQsMC4wMjUzIDAuMDE1MiwwLjA1MjUgMC4wMTQyLDAuMDc5OCB2IDIxLjE4NzcgYyAtMTBlLTUsMC4wNDkyIC0wLjAxMDQsMC4wOTc5IC0wLjAzMDIsMC4xNDMgLTAuMDE5OCwwLjA0NTEgLTAuMDQ4OCwwLjA4NTYgLTAuMDg1LDAuMTE4OSAtMC4wMzYyLDAuMDMzNCAtMC4wNzg5LDAuMDU4OCAtMC4xMjU1LDAuMDc0OSAtMC4wNDY1LDAuMDE2IC0wLjA5NTgsMC4wMjIyIC0wLjE0NDksMC4wMTgyIC0xLjk2NDYsLTAuMTY2MSAtMy45MTI5LC0wLjQ4ODcgLTUuODI2MywtMC45NjQ3IC0xLjE3MzcsLTAuMjgzMyAtMi4zMTU4LC0wLjY4NDggLTMuNDA4NywtMS4xOTgzIC0wLjAxOSwtMC4wMDg0IC0wLjAzNzEsLTAuMDE4NyAtMC4wNTQsLTAuMDMwOCAtMS41NDE4LC0xLjA4MzIgLTIuODI3NywtMi40OTEzIC0zLjc2NzIsLTQuMTI1MyAtMC4wMjY1LC0wLjAzODEgLTAuMDQyNSwtMC4wODI1IC0wLjA0NjUsLTAuMTI4OCAtMC4wMDQsLTAuMDQ2MiAwLjAwNDIsLTAuMDkyNyAwLjAyMzYsLTAuMTM0OCAwLjAxOTUsLTAuMDQyMSAwLjA0OTcsLTAuMDc4NCAwLjA4NzUsLTAuMTA1MyAwLjAzNzgsLTAuMDI2OCAwLjA4MiwtMC4wNDMzIDAuMTI4MiwtMC4wNDc4IGwgMC41MTA5LC0wLjEwNDIgYyAwLjEwMTQsLTAuMDIyOSAwLjE5NTEsLTAuMDcyIDAuMjcxNiwtMC4xNDI0IDAuMDc2NSwtMC4wNzA0IDAuMTMzMiwtMC4xNTk3IDAuMTY0NCwtMC4yNTg5IDAuMDMxMywtMC4wOTkyIDAuMDM1OSwtMC4yMDQ5IDAuMDEzNSwtMC4zMDY1IC0wLjAyMjQsLTAuMTAxNiAtMC4wNzEsLTAuMTk1NSAtMC4xNDEsLTAuMjcyNCBsIC00LjQ4NDUsLTQuODkxMyBjIC0wLjA2ODQsLTAuMDc3NyAtMC4xNTY0LC0wLjEzNTYgLTAuMjU0OCwtMC4xNjc3IC0wLjA5ODQsLTAuMDMyMSAtMC4yMDM2LC0wLjAzNzEgLTAuMzA0NywtMC4wMTQ3IC0wLjEwMSwwLjAyMjUgLTAuMTk0MSwwLjA3MTcgLTAuMjY5NywwLjE0MjUgLTAuMDc1NiwwLjA3MDcgLTAuMTMwOCwwLjE2MDUgLTAuMTU5OSwwLjI1OTkgLTAuNjYzMiwyLjEwMTIgLTEuMzA5MSw0LjE1NDIgLTEuOTY0Niw2LjIzNjEgLTAuMDM0NCwwLjEwODYgLTAuMDM5NiwwLjIyNDQgLTAuMDE1LDAuMzM1NyAwLjAyNDcsMC4xMTEyIDAuMDc4MywwLjIxNCAwLjE1NTQsMC4yOTc4IDAuMDc3MSwwLjA4MzggMC4xNzUsMC4xNDU4IDAuMjgzOCwwLjE3OTYgMC4xMDg3LDAuMDMzNyAwLjIyNDQsMC4wMzgxIDAuMzM1NCwwLjAxMjcgbCAwLjM0NzEsLTAuMDc5MSBjIDAuMjEzNCwtMC4wNDg4IDAuNDM3LC0wLjAyNTMgMC42MzU2LDAuMDY2OSAwLjE5ODUsMC4wOTIyIDAuMzYwOSwwLjI0NzkgMC40NjE0LDAuNDQyNSAyLjU3OTYsNS4wMTY3IDYuNDU4Nyw4LjY0NiAxMS41OTEsMTAuOTQwMiAyLjAwNTEsMC44OTcyIDIuNzk5NCwxLjE1NzcgNC41MzA3LDEuNDIyIDAuMDczMiwwLjAxMTIgMC4xNDA4LDAuMDQ1NyAwLjE5MjgsMC4wOTg0IGwgMi42MzU2LDIuNjE0NSBjIDAuMTc2NywwLjE3MjIgMC40MTM2LDAuMjY4NSAwLjY2MDMsMC4yNjg1IDAuMjQ2NywwIDAuNDgzNiwtMC4wOTYzIDAuNjYwMywtMC4yNjg1IGwgMi41NjA0LC0yLjUwODMgYyAwLjA1ODYsLTAuMDU2OSAwLjEzNDcsLTAuMDkyMiAwLjIxNTksLTAuMTAwNCAyLjU2NDIsLTAuMjQxMiAzLjcwNzUsLTAuODc2IDYuNDY2NCwtMi4xMzk4IDQuMjcwNSwtMS45NTQ2IDcuNjYxOCwtNS4zNTYyIDkuODQ0MywtOS41MTYyIDAuMTkyOCwtMC4zNzA1IDAuMzYyNCwtMC40MTQ5IDAuNjkwMiwtMC4zMDQ5IDAuMTI1MywwLjA0MjUgMC4yNTI1LDAuMDgzIDAuMzg1NiwwLjEyMTYgMC4xMzU0LDAuMDQyMiAwLjI3OTYsMC4wNDczIDAuNDE3NiwwLjAxNDkgMC4xMzgxLC0wLjAzMjQgMC4yNjQ5LC0wLjEwMTIgMC4zNjc0LC0wLjE5OTMgMC4xMDI1LC0wLjA5OCAwLjE3NjksLTAuMjIxNyAwLjIxNTUsLTAuMzU4MyAwLjAzODYsLTAuMTM2NiAwLjA0LC0wLjI4MSAwLjAwNCwtMC40MTgyIHogTSA3MC42NzE5LDUyLjk4NzYgYyAtMC40NTEsLTAuMDE1OCAtMC44OTQzLC0wLjEyMDkgLTEuMzA0NCwtMC4zMDkyIC0wLjQxMDEsLTAuMTg4MyAtMC43Nzg5LC0wLjQ1NiAtMS4wODUxLC0wLjc4NzcgLTAuMzA2MiwtMC4zMzE3IC0wLjU0MzYsLTAuNzIwOCAtMC42OTg3LC0xLjE0NDkgLTAuMTU1MSwtMC40MjQxIC0wLjIyNDcsLTAuODc0NyAtMC4yMDQ4LC0xLjMyNTggMC4wOTI1LC0yLjAxODIgMS43Njk5LC0zLjUwNzggMy42NjMxLC0zLjM2MzEgMS45OTM2LDAuMTU0NCAzLjM2NjMsMS43NTc4IDMuMjY2LDMuNjA2MiAtMC4xMDc5LDIuMDEwNSAtMS43NTQ0LDMuNDY1NCAtMy42MzYxLDMuMzI0NSB6IgogICAgICAgZmlsbD0iI2ZmZmZmZiIKICAgICAgIGlkPSJwYXRoODE0IiAvPgogIDwvZz4KICA8ZGVmcwogICAgIGlkPSJkZWZzODIxIj4KICAgIDxjbGlwUGF0aAogICAgICAgaWQ9ImNsaXAwXzBfODEyIj4KICAgICAgPHJlY3QKICAgICAgICAgd2lkdGg9IjE0MS43MDIiCiAgICAgICAgIGhlaWdodD0iMTM2LjgzNzAxIgogICAgICAgICBmaWxsPSIjZmZmZmZmIgogICAgICAgICBpZD0icmVjdDgxOCIKICAgICAgICAgeD0iMCIKICAgICAgICAgeT0iMCIgLz4KICAgIDwvY2xpcFBhdGg+CiAgPC9kZWZzPgo8L3N2Zz4K;shadow=0;imageBorder=none;opacity=60;" parent="ejgMcL6vFzZr32kdlm8D-9" vertex="1">
          <mxGeometry x="71.78358982891483" y="205.50434697370693" width="154.578596149931" height="154.578596149931" as="geometry" />
        </mxCell>
        <mxCell id="Fh-Z3yIdIVOxWTqGEip0-7" style="edgeStyle=orthogonalEdgeStyle;rounded=0;orthogonalLoop=1;jettySize=auto;html=1;exitX=0.5;exitY=0;exitDx=0;exitDy=0;entryX=0.005;entryY=0.63;entryDx=0;entryDy=0;entryPerimeter=0;fillColor=#f5f5f5;strokeColor=#666666;opacity=50;" parent="ejgMcL6vFzZr32kdlm8D-9" source="Fh-Z3yIdIVOxWTqGEip0-2" target="dVmr7rk7CjMn16wcttis-1" edge="1">
          <mxGeometry relative="1" as="geometry" />
        </mxCell>
        <mxCell id="Fh-Z3yIdIVOxWTqGEip0-8" style="edgeStyle=orthogonalEdgeStyle;rounded=0;orthogonalLoop=1;jettySize=auto;html=1;exitX=0.5;exitY=1;exitDx=0;exitDy=0;entryX=0.005;entryY=0.63;entryDx=0;entryDy=0;entryPerimeter=0;fillColor=#f5f5f5;strokeColor=#666666;opacity=50;" parent="ejgMcL6vFzZr32kdlm8D-9" source="Fh-Z3yIdIVOxWTqGEip0-2" target="dVmr7rk7CjMn16wcttis-7" edge="1">
          <mxGeometry relative="1" as="geometry" />
        </mxCell>
        <mxCell id="ejgMcL6vFzZr32kdlm8D-7" value="&lt;font style=&quot;font-size: 10px;&quot;&gt;3&lt;/font&gt;" style="ellipse;whiteSpace=wrap;html=1;fillColor=#f5f5f5;fontColor=#333333;strokeColor=#666666;" vertex="1" parent="ejgMcL6vFzZr32kdlm8D-9">
          <mxGeometry x="445.05182282486584" y="211.92798526125827" width="30.965375973690414" height="28.90623154201321" as="geometry" />
        </mxCell>
        <mxCell id="ejgMcL6vFzZr32kdlm8D-8" value="" style="edgeStyle=orthogonalEdgeStyle;rounded=0;orthogonalLoop=1;jettySize=auto;html=1;endArrow=none;startFill=0;dashed=1;strokeColor=#666666;exitX=0.995;exitY=0.63;exitDx=0;exitDy=0;fillColor=#f5f5f5;exitPerimeter=0;entryX=0;entryY=0.5;entryDx=0;entryDy=0;" edge="1" parent="ejgMcL6vFzZr32kdlm8D-9" source="nbdM6_VTKNTRga-LtgbC-12" target="nbdM6_VTKNTRga-LtgbC-24">
          <mxGeometry relative="1" as="geometry">
            <mxPoint x="1273.440883564949" y="288.57221706969483" as="sourcePoint" />
            <mxPoint x="1435.6717965782966" y="290.00788713702957" as="targetPoint" />
          </mxGeometry>
        </mxCell>
      </root>
    </mxGraphModel>
  </diagram>
</mxfile>
